<svg width="50" height="50" viewBox="0 0 50 50" fill="none" xmlns="http://www.w3.org/2000/svg">
<path d="M16.175 10.2736C17.375 9.55085 18.675 8.95715 20 8.54414V5.24006C20 2.40062 22.175 0.0774393 24.925 0C27.825 0.0774393 30 2.40062 30 5.24006V8.54414C31.325 8.98296 32.625 9.55085 33.825 10.2736L29.825 15.746H20.175L16.175 10.2736ZM42.5 25.8906C42.5 27.1812 42.375 28.3428 42.15 29.5044L35.825 27.491L32.85 18.0434L36.85 12.5968C37.925 13.6293 38.875 14.7909 39.7 16.0816C41.675 15.9009 43.575 16.2106 45.275 17.0883C47.85 18.4564 49.6 21.0635 50 24.032L42.5 24.9613V25.8906ZM7.5 25.8906V24.9871L0 24.032C0.4 21.0635 2.15 18.4564 4.725 17.0883C6.41479 16.207 8.33373 15.9085 10.2 16.2364C11.025 14.92 11.975 13.7068 13.1 12.6484L17.15 18.0176L14.175 27.491L7.85 29.5044C7.625 28.3428 7.5 27.1812 7.5 25.8906ZM20.6 19.618H29.4L32.125 28.2912L25 33.6345L17.875 28.2912L20.6 19.618ZM15.325 31.1822L23.125 37.016V43.8565C21.7 43.7016 20.325 43.366 19.05 42.8756L15.975 50C14.6692 49.4021 13.5258 48.482 12.6452 47.3207C11.7646 46.1594 11.1739 44.7925 10.925 43.3402C10.575 41.3784 10.875 39.4166 11.725 37.6613C10.6 36.319 9.675 34.8219 8.975 33.1698L15.325 31.1822M34.675 31.1822L41.025 33.1698C40.325 34.8219 39.4 36.319 38.275 37.6613C39.125 39.4166 39.425 41.3784 39.1 43.3402C38.8414 44.7924 38.2442 46.1576 37.36 47.318C36.4757 48.4783 35.3311 49.3989 34.025 50L30.975 42.8756C29.65 43.366 28.325 43.8049 26.875 43.9597V37.016L34.675 31.1822V31.1822Z" fill="white"/>
</svg>
